#!OML:ASF F:\VICON\USERDATA\INSTALL\rory3\rory3.ASF
:FULLY-SPECIFIED
:DEGREES
1
root -0.13748100000000035 18.1811 4.912260000000016 -3.8671400000000014 0.306461999999998 -4.461109999999994
lfemur -8.119450000000002 0.7019559999999978 -15.258599999999987
ltibia 66.63480000000004
lfoot 4.71585000000002 -11.448399999999992
ltoes -10.395800000000017
rfemur -12.9786 4.621919999999999 30.10750000000001
rtibia 28.671899999999987
rfoot -10.280699999999996 -3.7869499999999987
rtoes 6.655250000000002
lowerback nan -0.5968919999999989 2.5888000000000004
upperback 0.30171199999999987 -0.3558200000000018 2.5311299999999983
thorax -5.33097 -0.20876899999999954 1.2383599999999992
lowerneck -16.0152 -3.2157300000000006 -1.542149999999999
upperneck 21.9823 -4.13372 0.14982299999999893
head 9.63584 -2.0348500000000005 -0.22545799999999988
lclavicle -8.709249999999993e-15 -2.027600000000002e-14
lhumerus -28.6003 1.8588100000000076 82.7714
lradius 28.199400000000008
lwrist 5.44337
lhand -29.514000000000003 22.731699999999996
lfingers nan
lthumb -2.8480899999999973 52.692499999999995
rclavicle -8.709249999999993e-15 -2.027600000000002e-14
rhumerus -35.221999999999994 -30.152200000000015 -71.38870000000001
rradius 18.450400000000013
rwrist 13.00960000000001
rhand -15.655000000000001 nan
rfingers nan
rthumb 10.532999999999998 -4.371019999999998
2
root -0.19496199999999908 18.2081 5.611399999999982 -3.840740000000001 -0.3464200000000015 -5.12176
lfemur -13.274400000000005 1.8730999999999969 -14.307899999999995
ltibia 68.65759999999995
lfoot 1.2440199999999901 -8.235290000000003
ltoes -6.048210000000002
rfemur -9.899370000000001 4.82317 31.39280000000001
rtibia 27.77479999999997
rfoot -11.556599999999996 -3.9302600000000023
rtoes 8.347490000000004
lowerback nan -0.10349399999999942 3.17304
upperback 0.5539779999999997 0.3391960000000007 2.52095
thorax -4.871650000000001 0.12454899999999999 0.795375
lowerneck -16.4777 -3.2579800000000003 -1.533680000000001
upperneck 22.5437 -4.19672 0.16414199999999957
head 9.92242 -2.05576 -0.24486899999999961
lclavicle -1.935039999999996e-14 -1.2324600000000008e-14
lhumerus -29.3755 3.3282000000000034 82.6938
lradius 26.994700000000005
lwrist 4.944190000000001
lhand -27.1913 22.904600000000002
lfingers nan
lthumb -0.6048150000000017 52.8834
rclavicle -1.935039999999996e-14 -1.2324600000000008e-14
rhumerus -32.3823 -28.43189999999997 -73.5124
rradius 18.154900000000016
rwrist 14.456000000000003
rhand -17.5996 nan
rfingers nan
rthumb 8.65672 -5.047400000000005
3
root -0.22641999999999918 18.2027 6.3024499999999986 -3.818649999999998 -1.4257199999999985 -5.471330000000004
lfemur -17.55600000000002 2.878250000000001 -14.098500000000001
ltibia 67.72230000000008
lfoot -2.9255999999999998 -4.7867200000000025
ltoes -8.045870000000003
rfemur -7.153160000000009 4.77273 32.13060000000001
rtibia 27.46360000000001
rfoot -13.181200000000002 -3.720379999999996
rtoes 10.131199999999993
lowerback nan 0.5004200000000001 3.6874299999999964
upperback 0.350622 1.2225399999999988 2.3351299999999995
thorax -5.31171 0.5389950000000002 0.18684099999999942
lowerneck -16.0934 -3.3503700000000003 -1.8214700000000001
upperneck 22.5976 -4.360480000000001 0.584501
head 9.88876 -2.1084800000000006 -0.06602390000000011
lclavicle -4.907499999999992e-15 -1.8884499999999998e-14
lhumerus -30.9603 4.08115 82.5552
lradius 25.5699
lwrist 5.66587
lhand -27.059200000000004 21.5779
lfingers nan
lthumb -0.47729100000000213 51.5571
rclavicle -4.907499999999992e-15 -1.8884499999999998e-14
rhumerus -30.525400000000005 -24.4529 -76.1475
rradius 19.399900000000006
rwrist 10.513199999999989
rhand -17.6445 nan
rfingers nan
rthumb 8.61338 -4.844960000000004
4
root -0.24846599999999974 18.1394 6.9822599999999895 -3.6070900000000004 -1.785150000000001 -6.140740000000008
lfemur -21.337999999999987 3.0997 -13.610699999999987
ltibia 64.85080000000004
lfoot -6.51595 -1.6947199999999996
ltoes -11.721100000000016
rfemur -5.2779500000000095 3.976609999999999 33.079400000000014
rtibia 28.155800000000013
rfoot -15.525000000000013 -3.3550500000000003
rtoes 8.049639999999986
lowerback nan 0.8214930000000006 4.554380000000001
upperback 0.42799599999999993 1.7328000000000012 2.23564
thorax -5.12629 0.7718039999999999 -0.47329799999999933
lowerneck -16.0983 -3.3741599999999994 -1.5558499999999997
upperneck 22.0905 -4.44389 0.5463719999999999
head 9.70278 -2.1310200000000004 -0.12889700000000015
lclavicle 9.509049999999991e-15 4.919920000000009e-15
lhumerus -32.2796 4.59815 82.4141
lradius 24.5775
lwrist 6.128269999999999
lhand -26.7266 21.6769
lfingers nan
lthumb -0.15603900000000115 51.6566
rclavicle 9.509049999999991e-15 4.919920000000009e-15
rhumerus -28.2708 -20.0544 -78.9067
rradius 22.166500000000006
rwrist 6.823199999999996
rhand -17.412 nan
rfingers nan
rthumb 8.83774 -12.482399999999998
